# xmcd CD database file generated by Grip 2.96
# 
# Track frame offsets:
#       150
#       18674
#       43141
#       62914
#       94514
#       114369
#       133087
#       152327
#       165803
#       191259
#       206222
#       227443
#       245509
# 
# Disc length: 4159 seconds
# 
# Revision: 0
# Processed by: cddbd v1.4PL0 Copyright (c) Steve Scherf et al.
# Submitted via: Grip 2.96
# 
DISCID=a0103d0d
DTITLE=Dona Oxford - RAW
DYEAR=1900
DGENRE=
TTITLE0=Let s ahave a ball
TTITLE1=The Hammer
TTITLE2=I m on Fire
TTITLE3=Nothing from nothing leaves nothing
TTITLE4=Crazy bout you baby
TTITLE5=It's our day
TTITLE6=When you find a fool, bump her head
TTITLE7=Here we go again
TTITLE8=Something you got
TTITLE9=I want you back
TTITLE10=Til the well runs dry
TTITLE11=You ll never ever know
TTITLE12=Doe s boogie
EXTD=
EXTT0=
EXTT1=
EXTT2=
EXTT3=
EXTT4=
EXTT5=
EXTT6=
EXTT7=
EXTT8=
EXTT9=
EXTT10=
EXTT11=
EXTT12=
PLAYORDER=
